<?xml version="1.0" encoding="UTF-8"?><svg xmlns="http://www.w3.org/2000/svg" xmlns:xlink="http://www.w3.org/1999/xlink"><symbol viewBox="0 0 35 24" id="backward" xmlns="http://www.w3.org/2000/svg"><g transform="matrix(-1 0 0 1 35 0)" stroke="currentColor" fill="none" fill-rule="evenodd"><path d="M17.5 1.814v20.304a.5.5 0 0 0 .78.414l15.537-10.497a.5.5 0 0 0-.013-.837L18.267 1.39a.5.5 0 0 0-.767.423ZM.5 1.814v20.304a.5.5 0 0 0 .78.414l15.537-10.497a.5.5 0 0 0-.013-.837L1.267 1.39a.5.5 0 0 0-.767.423Z"/></g></symbol><symbol viewBox="0 0 23 22" id="backward-10seconds" xmlns="http://www.w3.org/2000/svg"><g transform="translate(-1)" fill="currentColor" fill-rule="evenodd"><path d="M12.364 0 8 4.364l4.364 4.363V5.091h6.909a3.278 3.278 0 0 1 3.272 3.273 3.278 3.278 0 0 1-3.272 3.272h-1.091v1.455h1.09C21.87 13.09 24 10.96 24 8.364c0-2.597-2.13-4.728-4.727-4.728h-6.91V0Z" fill-rule="nonzero"/><text font-family="TrebuchetMS, Trebuchet MS" font-size="14">
                        <tspan x=".158" y="21">10</tspan>
                    </text></g></symbol><symbol fill="none" viewBox="0 0 35 35" id="backward-1h" xmlns="http://www.w3.org/2000/svg"><circle cx="17.5" cy="17.5" r="16.9" stroke="#fff" stroke-width="1.2"/><path d="M6.455 17.348h3.55v1.274h-3.55v-1.274Zm11.565 3.71V22.2h-5.495v-1.14h2.1v-6.315c0-.224.007-.452.021-.686l-1.617 1.365a.567.567 0 0 1-.217.112.496.496 0 0 1-.203 0 .66.66 0 0 1-.168-.063.486.486 0 0 1-.112-.105l-.469-.658 3.038-2.61h1.225v8.96h1.897Zm3.354-5.152c.294-.29.616-.52.966-.693.35-.177.759-.266 1.225-.266.392 0 .735.066 1.03.196.298.13.548.315.748.553.206.238.36.525.462.861a3.7 3.7 0 0 1 .154 1.1v4.542h-1.498v-4.543c0-.48-.112-.854-.336-1.12-.219-.266-.555-.399-1.008-.399-.336 0-.648.077-.938.231a3.233 3.233 0 0 0-.805.63V22.2H19.87V11.84h1.505v4.067Z" fill="#fff"/></symbol><symbol viewBox="0 0 19 22" id="backward-5seconds" xmlns="http://www.w3.org/2000/svg"><g transform="translate(-1)" fill="currentColor" fill-rule="evenodd"><path d="M8.364 0 4 4.364l4.364 4.363V5.091h6.909a3.278 3.278 0 0 1 3.272 3.273 3.278 3.278 0 0 1-3.272 3.272h-1.091v1.455h1.09C17.87 13.09 20 10.96 20 8.364c0-2.597-2.13-4.728-4.727-4.728h-6.91V0Z" fill-rule="nonzero"/><text font-family="TrebuchetMS, Trebuchet MS" font-size="14">
                                        <tspan x=".496" y="21">5s</tspan>
                                    </text></g></symbol><symbol viewBox="0 0 22 22" id="backward-frame" xmlns="http://www.w3.org/2000/svg"><g fill="none" fill-rule="evenodd"><path d="M10.364 0 6 4.364l4.364 4.363V5.091h6.909a3.278 3.278 0 0 1 3.272 3.273 3.278 3.278 0 0 1-3.272 3.272h-1.091v1.455h1.09C19.87 13.09 22 10.96 22 8.364c0-2.597-2.13-4.728-4.727-4.728h-6.91V0Z" fill="currentColor" fill-rule="nonzero"/><rect stroke="currentColor" x=".5" y="11.5" width="13" height="10"/><circle fill="currentColor" cx="10.5" cy="14.5" r="1.5"/><path d="M.5 19.5c1.667-1.333 3.667-2 6-2 3 0 5.333.667 7 2" stroke="currentColor"/></g></symbol><symbol viewBox="0 0 19 22" id="backward-second" xmlns="http://www.w3.org/2000/svg"><g transform="translate(-1)" fill="currentColor" fill-rule="evenodd"><path d="M8.364 0 4 4.364l4.364 4.363V5.091h6.909a3.278 3.278 0 0 1 3.272 3.273 3.278 3.278 0 0 1-3.272 3.272h-1.091v1.455h1.09C17.87 13.09 20 10.96 20 8.364c0-2.597-2.13-4.728-4.727-4.728h-6.91V0Z" fill-rule="nonzero"/><text font-family="TrebuchetMS, Trebuchet MS" font-size="14">
                                            <tspan x=".496" y="21">1s</tspan>
                                        </text></g></symbol><symbol viewBox="0 0 19 24" id="backward-start" xmlns="http://www.w3.org/2000/svg"><g stroke="currentColor" fill="none" fill-rule="evenodd"><path d="M17.866 1.814v20.304a.498.498 0 0 1-.78.414L1.549 12.035a.354.354 0 0 1-.166-.305c.003-.174.09-.367.251-.578L17.1 1.39a.498.498 0 0 1 .377-.065c.125.028.24.104.39.488Z"/><line x1=".5" y1="1" x2=".5" y2="23"/></g></symbol><symbol viewBox="0 0 32 32" id="blue-pause" xmlns="http://www.w3.org/2000/svg"><g fill="none" fill-rule="evenodd"><circle fill="currentColor" cx="16" cy="16" r="16"/><rect stroke="#FFF" stroke-width="1.5" x="9.75" y="6.75" width="4.333" height="18.5"/><rect stroke="#FFF" stroke-width="1.5" x="18.917" y="6.75" width="4.333" height="18.5"/></g></symbol><symbol viewBox="0 0 32 32" id="blue-play" xmlns="http://www.w3.org/2000/svg"><g fill="none" fill-rule="evenodd"><circle fill="currentColor" cx="16" cy="16" r="16"/><path d="M11 6v20l1.364-.922L26 16 12.364 6.922 11 6Zm1.781 3.372L22.716 16l-9.935 6.628V9.372Z" fill="#FFF" fill-rule="nonzero"/></g></symbol><symbol fill="none" viewBox="0 0 14 14" id="check" xmlns="http://www.w3.org/2000/svg"><path d="M4.862 11.595a.548.548 0 0 1-.394-.186L.754 7.695a.557.557 0 1 1 .787-.743l3.321 3.298 7.778-7.755a.557.557 0 0 1 .787.743l-8.171 8.171a.548.548 0 0 1-.394.186Z" fill="currentColor"/></symbol><symbol viewBox="0 0 26 26" id="checked" xmlns="http://www.w3.org/2000/svg"><polygon points="14.8453608 0 5.11340206 10.7762557 1.15463918 6.39269406 0 7.71689498 5.11340206 13.3333333 16 1.27853881" transform="translate(5 7)" fill="currentColor" fill-rule="nonzero"/></symbol><symbol viewBox="0 0 25 24" id="clear" xmlns="http://www.w3.org/2000/svg"><g transform="translate(.443)" fill="none" fill-rule="evenodd"><rect fill="none" width="24" height="24"/><circle fill="currentColor" cx="12" cy="12" r="12"/><g transform="translate(6 6)" stroke="#FFF" stroke-linecap="round" stroke-linejoin="round"><polyline points="0.364702898 0.519067468 5.86877633 6.0231409 11.3728498 11.5272143"/><polyline transform="matrix(-1 0 0 1 11.738 0)" points="0.364702898 0.519067468 5.86877633 6.0231409 11.3728498 11.5272143"/></g></g></symbol><symbol viewBox="0 0 24 24" id="compress" xmlns="http://www.w3.org/2000/svg"><path d="M8.22 8.008V.624a.616.616 0 0 0-.314-.541.652.652 0 0 0-.637 0 .616.616 0 0 0-.313.54v6.155H.64a.639.639 0 0 0-.555.305.607.607 0 0 0 0 .62.639.639 0 0 0 .555.305h7.58Zm15.146.002A.625.625 0 0 0 24 7.416a.624.624 0 0 0-.59-.637H17.05V.625a.625.625 0 0 0-.58-.623L16.408 0a.626.626 0 0 0-.621.625V8.01h7.579ZM7.595 24a.626.626 0 0 0 .621-.625V15.99H.637c-.022 0-.042 0-.061.003a.621.621 0 0 0-.575.644c.017.33.298.586.636.584h6.316v6.154a.61.61 0 0 0 .185.445c.121.117.286.182.457.18Zm8.827 0a.626.626 0 0 0 .622-.625V17.22h6.316a.639.639 0 0 0 .555-.305.607.607 0 0 0 0-.62.639.639 0 0 0-.555-.306h-7.58v7.385a.61.61 0 0 0 .186.445c.12.117.286.182.456.18Z" fill="currentColor" fill-rule="nonzero"/></symbol><symbol fill="none" viewBox="0 0 15 15" id="copy" xmlns="http://www.w3.org/2000/svg"><path d="M11.893 5.167 8.667 1.94a.438.438 0 0 0-.31-.129h-1.44a1.604 1.604 0 0 0-1.604 1.605v.729h-.73A1.604 1.604 0 0 0 2.98 5.75v5.833a1.604 1.604 0 0 0 1.604 1.604h4.084a1.604 1.604 0 0 0 1.604-1.604v-.729h.146A1.604 1.604 0 0 0 12.02 9.25V5.458a.438.438 0 0 0-.128-.291Zm-3.08-1.861 1.715 1.715H8.813V3.306Zm.583 8.277a.73.73 0 0 1-.73.73H4.584a.729.729 0 0 1-.729-.73V5.75a.73.73 0 0 1 .73-.73h.729v4.23a1.604 1.604 0 0 0 1.604 1.604h2.479v.73Zm1.02-1.604h-3.5a.73.73 0 0 1-.728-.729V3.417a.73.73 0 0 1 .729-.73h1.02v2.771a.443.443 0 0 0 .438.438h2.77V9.25a.729.729 0 0 1-.728.73Z" fill="currentColor"/></symbol><symbol fill="none" viewBox="0 0 24 24" id="copy2" xmlns="http://www.w3.org/2000/svg"><path d="M19.53 8 14 2.47a.75.75 0 0 0-.53-.22H11A2.75 2.75 0 0 0 8.25 5v1.25H7A2.75 2.75 0 0 0 4.25 9v10A2.75 2.75 0 0 0 7 21.75h7A2.75 2.75 0 0 0 16.75 19v-1.25H17A2.75 2.75 0 0 0 19.75 15V8.5a.75.75 0 0 0-.22-.5Zm-5.28-3.19 2.94 2.94h-2.94V4.81Zm1 14.19A1.25 1.25 0 0 1 14 20.25H7A1.25 1.25 0 0 1 5.75 19V9A1.25 1.25 0 0 1 7 7.75h1.25V15A2.75 2.75 0 0 0 11 17.75h4.25V19ZM17 16.25h-6A1.25 1.25 0 0 1 9.75 15V5A1.25 1.25 0 0 1 11 3.75h1.75V8.5a.76.76 0 0 0 .75.75h4.75V15A1.25 1.25 0 0 1 17 16.25Z" fill="currentColor"/></symbol><symbol viewBox="0 0 5 23" id="dots" xmlns="http://www.w3.org/2000/svg"><g fill="#FFF" fill-rule="evenodd"><circle cx="2.5" cy="2.5" r="2.5"/><circle cx="2.5" cy="11.5" r="2.5"/><circle cx="2.5" cy="20.5" r="2.5"/></g></symbol><symbol viewBox="0 0 12 7" id="down" xmlns="http://www.w3.org/2000/svg"><polygon transform="rotate(45 937.437 335.701)" points="45.6568542 753.656854 45.6568542 761.656854 37.6568542 761.656854" fill="currentColor" fill-rule="evenodd"/></symbol><symbol viewBox="0 0 16 9" id="down2" xmlns="http://www.w3.org/2000/svg"><polygon points="1.18327974 0 0 1.16292135 7.40836013 8.44382022 8 9 8.59163987 8.44382022 16 1.16292135 14.8167203 0 8 6.6994382" fill="currentColor" fill-rule="evenodd"/></symbol><symbol viewBox="0 0 25 25" id="download" xmlns="http://www.w3.org/2000/svg"><g transform="matrix(0 1 1 0 .5 .5)" stroke="currentColor" fill="none" fill-rule="evenodd"><path d="M11.78 7.428a.458.458 0 0 0-.235.793l3.367 3.317H1.126a.466.466 0 0 0-.449.484.469.469 0 0 0 .493.44h13.742l-3.368 3.317a.459.459 0 0 0 .19.81.478.478 0 0 0 .472-.161l4.191-4.096.324-.332-.324-.332-4.191-4.096a.477.477 0 0 0-.382-.144h-.045Z" stroke-width=".4" fill="currentColor" fill-rule="nonzero"/><path d="M24 0v24"/></g></symbol><symbol viewBox="0 0 10 16" id="drag-drop" xmlns="http://www.w3.org/2000/svg"><g fill="currentColor"><rect x="6.25" width="3.75" height="3.692" rx="1"/><rect width="3.75" height="3.692" rx="1"/><rect y="6.154" width="3.75" height="3.692" rx="1"/><rect x="6.25" y="6.154" width="3.75" height="3.692" rx="1"/><rect y="12.308" width="3.75" height="3.692" rx="1"/><rect x="6.25" y="12.308" width="3.75" height="3.692" rx="1"/></g></symbol><symbol viewBox="0 0 48 48" id="error" xmlns="http://www.w3.org/2000/svg"><g fill="none" fill-rule="evenodd"><rect fill="currentColor" width="48" height="48" rx="8"/><path d="M30.28 14.532c.782 0 1.446.273 1.993.82.547.547.82 1.211.82 1.992 0 .782-.273 1.446-.82 1.992-.547.547-1.211.82-1.992.82a2.738 2.738 0 0 1-2-.82 2.7 2.7 0 0 1-.828-1.992 2.7 2.7 0 0 1 .828-1.992 2.738 2.738 0 0 1 2-.82Zm-12.656 0c.782 0 1.446.273 1.993.82.547.547.82 1.211.82 1.992 0 .782-.273 1.446-.82 1.992-.547.547-1.211.82-1.993.82a2.738 2.738 0 0 1-2-.82 2.7 2.7 0 0 1-.828-1.992 2.7 2.7 0 0 1 .828-1.992 2.738 2.738 0 0 1 2-.82Zm21.297 19.39h-2.156c-2.885-2.063-7.052-3.094-12.5-3.094-6.48 0-10.864 1.03-13.156 3.093h-2.64c1.666-2.458 3.874-4.336 6.624-5.632 2.75-1.297 5.818-1.946 9.203-1.946 2.896 0 5.79.73 8.68 2.188 2.89 1.458 4.872 3.255 5.945 5.39Z" fill="#FFF" fill-rule="nonzero"/></g></symbol><symbol fill="none" viewBox="0 0 14 14" id="exclamation-triangle" xmlns="http://www.w3.org/2000/svg"><g clip-path="url(#amalia-ava)"><path d="M13.402 13.19H.598a.609.609 0 0 1-.52-.297.616.616 0 0 1 0-.6L6.48 1.09a.624.624 0 0 1 1.04 0l6.402 11.203a.617.617 0 0 1 0 .6.609.609 0 0 1-.52.296ZM1.63 11.988h10.74L7 2.594 1.63 11.99Z" fill="currentColor"/><path d="M7 8.788a.608.608 0 0 1-.6-.6V5.387a.6.6 0 1 1 1.2 0v2.8a.608.608 0 0 1-.6.601ZM7 11.189a.608.608 0 0 1-.6-.6v-.4a.6.6 0 1 1 1.2 0v.4a.608.608 0 0 1-.6.6Z" fill="#000"/></g><defs><clipPath id="amalia-ava"><rect width="14" height="14" fill="#fff"/></clipPath></defs></symbol><symbol viewBox="0 0 35 24" id="forward" xmlns="http://www.w3.org/2000/svg"><g stroke="currentColor" fill="none" fill-rule="evenodd"><path d="M17.5 1.814v20.304a.5.5 0 0 0 .78.414l15.537-10.497a.5.5 0 0 0-.013-.837L18.267 1.39a.5.5 0 0 0-.767.423ZM.5 1.814v20.304a.5.5 0 0 0 .78.414l15.537-10.497a.5.5 0 0 0-.013-.837L1.267 1.39a.5.5 0 0 0-.767.423Z"/></g></symbol><symbol viewBox="0 0 24 22" id="forward-10seconds" xmlns="http://www.w3.org/2000/svg"><g fill="currentColor" fill-rule="evenodd"><path d="M11.636 0 16 4.364l-4.364 4.363V5.091H4.727a3.278 3.278 0 0 0-3.272 3.273 3.278 3.278 0 0 0 3.272 3.272h1.091v1.455h-1.09C2.13 13.09 0 10.96 0 8.364c0-2.597 2.13-4.728 4.727-4.728h6.91V0Z" fill-rule="nonzero"/><text font-family="TrebuchetMS, Trebuchet MS" font-size="14">
                        <tspan x="9.158" y="21">10</tspan>
                    </text></g></symbol><symbol fill="none" viewBox="0 0 36 35" id="forward-1h" xmlns="http://www.w3.org/2000/svg"><circle cx="18.5" cy="17.5" r="16.9" stroke="#fff" stroke-width="1.2"/><path d="M13.358 17.87H10.58v2.933H9.354V17.87H6.59v-1.134h2.765V13.81h1.225v2.926h2.78v1.134Zm7.862 2.989V22h-5.495v-1.141h2.1v-6.314c0-.224.007-.453.021-.686l-1.617 1.365a.57.57 0 0 1-.217.112.496.496 0 0 1-.203 0 .657.657 0 0 1-.168-.063.488.488 0 0 1-.112-.105l-.469-.658 3.038-2.611h1.225v8.96h1.897Zm3.354-5.152c.294-.29.616-.52.966-.693.35-.177.759-.266 1.225-.266.392 0 .735.065 1.03.196.298.13.548.315.748.553.206.238.36.525.462.861a3.7 3.7 0 0 1 .154 1.099V22h-1.498v-4.543c0-.48-.112-.854-.336-1.12-.219-.266-.555-.399-1.008-.399-.336 0-.648.077-.938.231a3.233 3.233 0 0 0-.805.63V22H23.07V11.64h1.505v4.067Z" fill="#fff"/></symbol><symbol viewBox="0 0 20 23" id="forward-5seconds" xmlns="http://www.w3.org/2000/svg"><g fill="currentColor" fill-rule="evenodd"><path d="M11.636 0 16 4.364l-4.364 4.363V5.091H4.727a3.278 3.278 0 0 0-3.272 3.273 3.278 3.278 0 0 0 3.272 3.272h1.091v1.455h-1.09C2.13 13.09 0 10.96 0 8.364c0-2.597 2.13-4.728 4.727-4.728h6.91V0Z" fill-rule="nonzero"/><text font-family="TrebuchetMS, Trebuchet MS" font-size="14">
                                        <tspan x="7.496" y="22">5s</tspan>
                                    </text></g></symbol><symbol viewBox="0 0 20 24" id="forward-end" xmlns="http://www.w3.org/2000/svg"><g stroke="currentColor" fill="none" fill-rule="evenodd"><path d="M.5 1.814v20.304a.498.498 0 0 0 .78.414l15.537-10.497a.354.354 0 0 0 .166-.305c-.003-.174-.09-.367-.251-.578L1.267 1.39a.498.498 0 0 0-.377-.065c-.125.028-.24.104-.39.488Z"/><line x1="19.5" x2="19.5" y2="22"/></g></symbol><symbol viewBox="0 0 22 22" id="forward-frame" xmlns="http://www.w3.org/2000/svg"><g fill="none" fill-rule="evenodd"><path d="M11.636 0 16 4.364l-4.364 4.363V5.091H4.727a3.278 3.278 0 0 0-3.272 3.273 3.278 3.278 0 0 0 3.272 3.272h1.091v1.455h-1.09C2.13 13.09 0 10.96 0 8.364c0-2.597 2.13-4.728 4.727-4.728h6.91V0Z" fill="currentColor" fill-rule="nonzero"/><rect stroke="currentColor" x="8.5" y="11.5" width="13" height="10"/><circle fill="currentColor" cx="18.5" cy="14.5" r="1.5"/><path d="M8.5 19.5c1.667-1.333 3.667-2 6-2 3 0 5.333.667 7 2" stroke="currentColor"/></g></symbol><symbol viewBox="0 0 19 23" id="forward-second" xmlns="http://www.w3.org/2000/svg"><g fill="currentColor" fill-rule="evenodd"><path d="M11.636 0 16 4.364l-4.364 4.363V5.091H4.727a3.278 3.278 0 0 0-3.272 3.273 3.278 3.278 0 0 0 3.272 3.272h1.091v1.455h-1.09C2.13 13.09 0 10.96 0 8.364c0-2.597 2.13-4.728 4.727-4.728h6.91V0Z" fill-rule="nonzero"/><text font-family="TrebuchetMS, Trebuchet MS" font-size="14">
                                            <tspan x="6.496" y="22">1s</tspan>
                                        </text></g></symbol><symbol viewBox="0 0 24 23" id="fullscreen" xmlns="http://www.w3.org/2000/svg"><path d="M0 0v7.077a.586.586 0 0 0 .313.518c.198.106.44.106.637 0a.586.586 0 0 0 .313-.518V1.18H7.58a.646.646 0 0 0 .555-.293.561.561 0 0 0 0-.594A.646.646 0 0 0 7.58 0H0Zm16.421 0c-.34-.002-.622.251-.634.569-.012.318.25.587.59.61H22.737v5.898c-.005.309.249.569.58.597l.061.002c.348-.007.627-.274.622-.6V0h-7.579ZM.621 15.324c-.347.007-.626.274-.62.6L0 23h7.579c.022 0 .042 0 .062-.002.338-.028.592-.302.574-.618-.017-.315-.298-.562-.636-.56H1.263v-5.897a.572.572 0 0 0-.185-.426.658.658 0 0 0-.456-.173Zm22.737 0c-.347.007-.626.274-.621.6v5.896H16.42a.646.646 0 0 0-.555.293.561.561 0 0 0 0 .594.646.646 0 0 0 .555.293H24v-7.077a.572.572 0 0 0-.185-.426.658.658 0 0 0-.457-.173Z" fill="currentColor" fill-rule="nonzero"/></symbol><symbol viewBox="0 0 14 16" id="hand" xmlns="http://www.w3.org/2000/svg"><path d="M7.429 0c-.79 0-1.447.554-1.643 1.286a1.68 1.68 0 0 0-.643-.143c-.94 0-1.714.774-1.714 1.714V9l-.5-.5A1.727 1.727 0 0 0 .5 8.5a1.727 1.727 0 0 0 0 2.429l3.875 3.875c.672.67 1.6 1.196 2.696 1.196h2.643c2.203 0 4-1.797 4-4V5.143c0-.94-.774-1.714-1.714-1.714-.2 0-.39.042-.571.107v-.679c0-.94-.775-1.714-1.715-1.714-.23 0-.442.06-.643.143C8.875.554 8.22 0 7.43 0Zm0 1.143c.323 0 .571.248.571.571V7.43h1.143V2.857c0-.324.248-.571.571-.571.324 0 .572.247.572.571V7.43h1.143V5.143c0-.324.247-.572.571-.572.324 0 .571.248.571.572V12a2.848 2.848 0 0 1-2.857 2.857H7.071c-.727 0-1.352-.355-1.875-.875l-3.892-3.857a.58.58 0 0 1 0-.821.58.58 0 0 1 .821 0l1.464 1.482.982.982v-8.91c0-.325.248-.572.572-.572.324 0 .571.247.571.571V7.43h1.143V1.714c0-.323.248-.571.572-.571Z" fill="currentColor" fill-rule="nonzero"/></symbol><symbol fill="none" viewBox="0 0 14 14" id="info" xmlns="http://www.w3.org/2000/svg"><path fill-rule="evenodd" clip-rule="evenodd" d="M6.358 2.164c.17.17.4.268.642.27a.925.925 0 0 0 .913-.912V.913a.913.913 0 1 0-1.826 0v.609c.003.24.1.471.27.642Zm0 11.565c.17.17.4.268.642.271a.926.926 0 0 0 .913-.913V4.565a.913.913 0 1 0-1.826 0v8.522c.003.241.1.472.27.642Z" fill="currentColor"/></symbol><symbol viewBox="0 0 32 32" id="new_refresh" xmlns="http://www.w3.org/2000/svg"><g fill="none"><circle style="fill:var(--hover, #EAEAEA)" cx="16" cy="16" r="16"/><path d="M13.308 4.5v7.36h-1.846V7.059C8.663 8.88 6.846 11.918 6.846 15.54c0 5.57 4.565 10.12 10.154 10.12v1.84c-6.595 0-12-5.387-12-11.96 0-3.734 1.659-7.004 4.298-9.2H5.923V4.5h7.385ZM18.692 27.5v-7.36h1.846v4.801c2.799-1.822 4.616-4.858 4.616-8.481 0-5.57-4.565-10.12-10.154-10.12V4.5c6.595 0 12 5.387 12 11.96 0 3.734-1.659 7.004-4.298 9.2h3.375v1.84h-7.385Z" fill="currentColor"/></g></symbol><symbol viewBox="0 0 15 18" id="padlock-close" xmlns="http://www.w3.org/2000/svg"><path d="M7.468 1a4.081 4.081 0 0 1 4.085 4.085v1.702h1.362c.56 0 1.021.462 1.021 1.022v8.17c0 .56-.461 1.021-1.021 1.021H2.02C1.461 17 1 16.539 1 15.979v-8.17c0-.56.461-1.022 1.021-1.022h1.362V5.085A4.081 4.081 0 0 1 7.468 1Zm0 .68a3.385 3.385 0 0 0-3.404 3.405v1.702h6.808V5.085a3.385 3.385 0 0 0-3.404-3.404Zm0 8.511c-.578 0-1.021.443-1.021 1.022 0 .306.135.574.34.744v.958a.682.682 0 0 0 1.362 0v-.958a.965.965 0 0 0 .34-.744c0-.579-.442-1.022-1.02-1.022Z" fill="currentColor" fill-rule="nonzero" stroke="currentColor" stroke-width=".2"/></symbol><symbol viewBox="0 0 15 18" id="padlock-open" xmlns="http://www.w3.org/2000/svg"><path d="M6.714 1c-.4-.001-.808.053-1.213.17-2.15.628-3.381 2.796-2.713 4.82v.02c.088.228.323.948.468 1.39H2.022C1.462 7.4 1 7.834 1 8.36v7.68c0 .526.462.96 1.022.96h10.896c.56 0 1.022-.434 1.022-.96V8.36c0-.526-.462-.96-1.022-.96H3.98a57.675 57.675 0 0 0-.554-1.6h.01c-.556-1.689.458-3.485 2.257-4.01 1.794-.524 3.716.425 4.278 2.11v.01c.077.254.447 1.38.447 1.38a.33.33 0 0 0 .248.234.353.353 0 0 0 .337-.098.306.306 0 0 0 .064-.326s-.385-1.165-.447-1.37v-.01c-.5-1.516-1.924-2.546-3.512-2.7A4.13 4.13 0 0 0 6.714 1ZM2.022 8.04h10.896c.19 0 .34.143.34.32v7.68c0 .178-.15.32-.34.32H2.022c-.19 0-.34-.142-.34-.32V8.36c0-.177.15-.32.34-.32ZM7.47 10.6c-.579 0-1.022.416-1.022.96 0 .288.136.54.34.7v.9c0 .353.307.64.682.64.375 0 .681-.287.681-.64v-.9a.886.886 0 0 0 .34-.7c0-.544-.442-.96-1.021-.96Z" fill="currentColor" fill-rule="nonzero" stroke="currentColor" stroke-width=".2"/></symbol><symbol viewBox="0 0 18 24" id="pause" xmlns="http://www.w3.org/2000/svg"><g stroke="currentColor" fill="none" fill-rule="evenodd"><rect x=".5" y=".5" width="6" height="23"/><rect x="11.5" y=".5" width="6" height="23"/></g></symbol><symbol viewBox="0 0 16 16" id="pin" xmlns="http://www.w3.org/2000/svg"><path d="M10.173.346 9.75.923 6.73 5.038c-1.617-.28-3.329.176-4.576 1.424l-.442.423 3.269 3.269L0 15.134V16h.865l4.981-4.98 3.27 3.268.422-.442c1.248-1.247 1.705-2.959 1.424-4.577l4.115-3.019.577-.423-5.48-5.48Zm.154 1.885 3.442 3.442-3.827 2.808-.346.25.116.404c.295 1.127-.027 2.303-.731 3.288L3.577 7.02c.986-.704 2.161-1.026 3.288-.73l.404.115.25-.346 2.808-3.827Z" fill="currentColor" fill-rule="nonzero"/></symbol><symbol fill="none" viewBox="0 0 24 24" id="piste-audio" xmlns="http://www.w3.org/2000/svg"><path d="M8.144 8.862c-.32 0-.589-.11-.809-.329-.22-.22-.329-.489-.329-.808 0-.32.11-.589.33-.808.219-.22.488-.33.808-.33h11.922c.32 0 .588.11.808.33.22.22.33.489.33.808 0 .32-.11.588-.33.808-.22.22-.489.33-.808.33H8.144Zm0 4.275c-.32 0-.589-.11-.809-.329-.22-.22-.329-.489-.329-.808 0-.32.11-.589.33-.808.219-.22.488-.33.808-.33h11.922c.32 0 .588.11.808.33.22.22.33.489.33.808 0 .32-.11.588-.33.808a1.1 1.1 0 0 1-.808.33H8.144Zm0 4.275c-.32 0-.589-.11-.809-.329-.22-.22-.329-.489-.329-.808 0-.32.11-.589.33-.808.219-.22.488-.33.808-.33h11.922c.32 0 .588.11.808.33.22.22.33.489.33.808 0 .32-.11.588-.33.808a1.1 1.1 0 0 1-.808.33H8.144Zm-4.217-8.55c-.32 0-.589-.108-.805-.326a1.1 1.1 0 0 1-.325-.808c0-.321.108-.592.325-.811.216-.22.485-.33.805-.33.32 0 .591.11.813.33.221.218.332.49.332.814 0 .32-.11.59-.332.806a1.118 1.118 0 0 1-.813.325Zm0 4.275c-.32 0-.589-.11-.805-.332a1.119 1.119 0 0 1-.325-.813c0-.32.108-.588.325-.805.216-.216.485-.325.805-.325.32 0 .591.109.813.325.221.217.332.485.332.806 0 .32-.11.59-.332.812a1.105 1.105 0 0 1-.813.332Zm0 4.27c-.32 0-.589-.11-.805-.327a1.1 1.1 0 0 1-.325-.808c0-.321.108-.592.325-.811.216-.22.485-.33.805-.33.32 0 .591.11.813.33.221.218.332.49.332.814 0 .32-.11.59-.332.806a1.117 1.117 0 0 1-.813.325Z" fill="#E9EAE9"/></symbol><symbol viewBox="0 0 12 24" id="play" xmlns="http://www.w3.org/2000/svg"><path d="M.5 22.793 11.293 12 .5 1.207v21.586Z" stroke="currentColor" fill="none"/></symbol><symbol viewBox="0 0 26 12" id="playback-rate" xmlns="http://www.w3.org/2000/svg"><g transform="translate(1 1)" stroke="currentColor" fill="none" fill-rule="evenodd"><rect x="7" width="8" height="5" rx="2.5"/><line y1="2.5" x2="7" y2="2.5" stroke-linecap="square"/><line x1="15.5" y1="2.5" x2="24" y2="2.5" stroke-linecap="square"/><g transform="translate(0 9)" stroke-linecap="square"><path d="M0 0a1.5 1.5 0 0 0 1.5 1.5h21A1.5 1.5 0 0 0 24 0h0"/><line x1="4" x2="4" y2="1.5"/><line x1="8" x2="8" y2="1.5"/><line x1="12" x2="12" y2="1.5"/><line x1="16" x2="16" y2="1.5"/><line x1="20" x2="20" y2="1.5"/></g></g></symbol><symbol viewBox="0 0 34 34" id="refresh" xmlns="http://www.w3.org/2000/svg"><g transform="translate(1)" fill="none"><circle cx="16" cy="16" r="16" style="fill:var(--hover, #EAEAEA)"/><path d="M13.988 8a3.441 3.441 0 0 0-3.428 3.429v8.595l-2.012-2.012L8 18.56l2.667 2.666.273.262.274-.262 2.667-2.666-.548-.548-2.012 2.012v-8.595a2.672 2.672 0 0 1 2.667-2.667h4.19V8h-4.19Zm6.857 2.512-.274.262-2.666 2.666.547.548 2.012-2.012v8.595a2.672 2.672 0 0 1-2.666 2.667h-4.19V24h4.19a3.441 3.441 0 0 0 3.428-3.429v-8.595l2.012 2.012.548-.548-2.667-2.666-.274-.262Z" fill="currentColor"/></g></symbol><symbol viewBox="0 0 9 16" id="right" xmlns="http://www.w3.org/2000/svg"><polygon points="1.18327974 0 0 1.16292135 7.40836013 8.44382022 8 9 8.59163987 8.44382022 16 1.16292135 14.8167203 0 8 6.6994382" transform="rotate(-90 8 8)" fill="currentColor" fill-rule="nonzero"/></symbol><symbol viewBox="0 0 25 24" id="screenshot" xmlns="http://www.w3.org/2000/svg"><g transform="translate(1 1)" fill="none" fill-rule="evenodd"><g transform="translate(4 6)" fill="currentColor" fill-rule="nonzero"><path d="M0 5.202v9.242C0 15.854 1.094 17 2.44 17h15.12c1.346 0 2.44-1.146 2.44-2.556V5.202c0-1.342-1.04-2.432-2.322-2.432h-3.25l-.077-.355C14.037.992 12.841 0 11.445 0H8.55C7.159 0 5.963.992 5.645 2.415l-.078.355H2.322C1.041 2.77 0 3.864 0 5.202Zm5.967-1.385a.503.503 0 0 0 .486-.406l.167-.76c.213-.945 1.004-1.604 1.931-1.604h2.894c.926 0 1.718.659 1.93 1.603l.168.761a.507.507 0 0 0 .486.406h3.644c.731 0 1.323.62 1.323 1.385v9.242c0 .833-.645 1.509-1.44 1.509H2.44c-.796 0-1.441-.676-1.441-1.51v-9.24c0-.766.592-1.386 1.322-1.386h3.645Z"/><circle cx="3.5" cy="5.5" r="1"/><path d="M10.5 14c2.48 0 4.5-2.02 4.5-4.5S12.98 5 10.5 5 6 7.016 6 9.5 8.02 14 10.5 14Zm0-7.929c1.89 0 3.429 1.54 3.429 3.429 0 1.89-1.54 3.429-3.429 3.429A3.434 3.434 0 0 1 7.071 9.5c0-1.89 1.54-3.429 3.429-3.429Z"/></g><path d="M4 16H0V0h16v7" stroke="currentColor" stroke-dasharray="2"/></g></symbol><symbol viewBox="0 0 25 24" id="search" xmlns="http://www.w3.org/2000/svg"><path d="M9.952 0C4.706 0 .443 4.166.443 9.293c0 5.126 4.263 9.292 9.51 9.292a9.597 9.597 0 0 0 5.558-1.76L22.87 24l1.573-1.537-7.272-7.123a9.128 9.128 0 0 0 2.29-6.047C19.461 4.166 15.198 0 9.952 0Zm-.009 1c4.702 0 8.5 3.575 8.5 8s-3.798 8-8.5 8-8.5-3.575-8.5-8 3.798-8 8.5-8Z" fill="currentColor" fill-rule="nonzero"/></symbol><symbol viewBox="0 0 18 18" id="settings" xmlns="http://www.w3.org/2000/svg"><path d="M8.028 1a.348.348 0 0 0-.343.291l-.339 2.072a5.835 5.835 0 0 0-1.16.477l-1.71-1.221a.348.348 0 0 0-.447.037L2.675 4.008a.348.348 0 0 0-.038.445l1.202 1.72a5.885 5.885 0 0 0-.486 1.17l-2.063.342a.348.348 0 0 0-.29.343v1.914c0 .168.12.313.287.343l2.064.365c.12.41.283.8.485 1.169l-1.218 1.703a.348.348 0 0 0 .037.448l1.353 1.353c.119.12.306.136.445.04l1.723-1.207c.367.2.756.36 1.164.48l.345 2.075c.028.167.173.29.343.29H9.94a.348.348 0 0 0 .343-.287l.369-2.082a5.862 5.862 0 0 0 1.158-.486l1.736 1.217c.138.097.326.081.445-.038l1.353-1.354c.12-.121.136-.311.036-.45l-1.237-1.717c.198-.363.357-.748.475-1.152l2.094-.367A.348.348 0 0 0 17 9.942V8.03a.348.348 0 0 0-.291-.343l-2.09-.342a5.873 5.873 0 0 0-.477-1.15l1.22-1.739a.348.348 0 0 0-.039-.445L13.97 2.657a.348.348 0 0 0-.45-.036l-1.712 1.232a5.83 5.83 0 0 0-1.16-.483l-.364-2.082A.348.348 0 0 0 9.941 1H8.028Zm.296.696h1.325l.346 1.977a.348.348 0 0 0 .259.278c.508.127.986.328 1.422.592.12.072.27.066.383-.015l1.628-1.17.937.937-1.159 1.652a.348.348 0 0 0-.014.379c.262.435.46.91.587 1.416a.348.348 0 0 0 .281.259l1.985.324V9.65l-1.989.35a.348.348 0 0 0-.277.259c-.125.505-.324.98-.585 1.415a.348.348 0 0 0 .015.383l1.176 1.63-.937.938-1.649-1.157a.348.348 0 0 0-.38-.012 5.18 5.18 0 0 1-1.42.595.348.348 0 0 0-.257.276l-.351 1.979H8.323l-.328-1.97a.348.348 0 0 0-.26-.28 5.184 5.184 0 0 1-1.427-.59.348.348 0 0 0-.379.013l-1.636 1.146-.938-.938 1.157-1.617a.348.348 0 0 0 .014-.382 5.169 5.169 0 0 1-.595-1.432.348.348 0 0 0-.277-.258L1.696 9.65V8.323l1.957-.325a.348.348 0 0 0 .28-.259c.129-.513.33-.993.596-1.432a.348.348 0 0 0-.012-.38L3.374 4.294l.938-.938 1.622 1.16c.113.08.262.086.381.014a5.159 5.159 0 0 1 1.427-.586.348.348 0 0 0 .26-.282l.322-1.966ZM9 6.218A2.788 2.788 0 0 0 6.217 9 2.788 2.788 0 0 0 9 11.784 2.788 2.788 0 0 0 11.783 9 2.788 2.788 0 0 0 9 6.218Zm0 .696c1.157 0 2.087.93 2.087 2.087 0 1.156-.93 2.087-2.087 2.087A2.082 2.082 0 0 1 6.913 9c0-1.157.93-2.087 2.087-2.087Z" fill="currentColor" fill-rule="nonzero" stroke="currentColor" stroke-width=".25"/></symbol><symbol viewBox="0 0 26 12" id="slider" xmlns="http://www.w3.org/2000/svg"><g transform="translate(1 1)" stroke="currentColor" fill="none" fill-rule="evenodd"><rect x="7" width="8" height="5" rx="2.5"/><line y1="2.5" x2="7" y2="2.5" stroke-linecap="square"/><line x1="15.5" y1="2.5" x2="24" y2="2.5" stroke-linecap="square"/><g transform="translate(0 9)" stroke-linecap="square"><path d="M0 0a1.5 1.5 0 0 0 1.5 1.5h21A1.5 1.5 0 0 0 24 0h0"/><line x1="4" x2="4" y2="1.5"/><line x1="8" x2="8" y2="1.5"/><line x1="12" x2="12" y2="1.5"/><line x1="16" x2="16" y2="1.5"/><line x1="20" x2="20" y2="1.5"/></g></g></symbol><symbol viewBox="0 0 26 26" id="slow-backward" xmlns="http://www.w3.org/2000/svg"><g transform="matrix(-1 0 0 1 25 1)" stroke="currentColor" fill="none" fill-rule="evenodd"><polygon points="9.81818182 17.4545455 13.7000199 14.6788068 17.4545455 12 13.7000199 9.32119318 9.81818182 6.54545455"/><path d="M12 24c6.627 0 12-5.373 12-12S18.627 0 12 0 0 5.373 0 12s5.373 12 12 12Z" stroke-dasharray="38"/><path d="M12 24C5.373 24 0 18.627 0 12S5.373 0 12 0s12 5.373 12 12-5.373 12-12 12Z" stroke-dasharray="2"/></g></symbol><symbol viewBox="0 0 26 26" id="slow-forward" xmlns="http://www.w3.org/2000/svg"><g transform="translate(1 1)" stroke="currentColor" fill="none" fill-rule="evenodd"><polygon points="9.81818182 17.4545455 13.7000199 14.6788068 17.4545455 12 13.7000199 9.32119318 9.81818182 6.54545455"/><path d="M12 24c6.627 0 12-5.373 12-12S18.627 0 12 0 0 5.373 0 12s5.373 12 12 12Z" stroke-dasharray="38"/><path d="M12 24c6.627 0 12-5.373 12-12S18.627 0 12 0 0 5.373 0 12s5.373 12 12 12Z" stroke-dasharray="2"/></g></symbol><symbol viewBox="0 0 24 24" id="subtitle" xmlns="http://www.w3.org/2000/svg"><g fill="none" fill-rule="evenodd"><rect stroke="currentColor" x=".5" y=".5" width="23" height="23" rx="2"/><rect fill="currentColor" x="7" y="14" width="13" height="2"/><rect fill="currentColor" x="4" y="18" width="13" height="2"/><rect fill="currentColor" x="18" y="18" width="2" height="2"/><rect fill="currentColor" x="4" y="14" width="2" height="2"/></g></symbol><symbol viewBox="0 0 24 9" id="switch" xmlns="http://www.w3.org/2000/svg"><path d="M19.673 0a.617.617 0 0 0-.571.4.661.661 0 0 0 .14.702l2.646 2.755h-4.785a.612.612 0 0 0-.541.318.665.665 0 0 0 0 .647c.112.2.318.321.54.318h4.786l-2.645 2.755a.66.66 0 0 0-.17.625.63.63 0 0 0 .441.46.6.6 0 0 0 .6-.177l3.643-3.794A.651.651 0 0 0 24 4.498c0-.2-.09-.39-.244-.51L20.114.193A.604.604 0 0 0 19.673 0ZM4.327 9c.251 0 .477-.158.571-.4a.661.661 0 0 0-.14-.702L2.111 5.143h4.785a.612.612 0 0 0 .541-.318.665.665 0 0 0 0-.647.612.612 0 0 0-.54-.318H2.111l2.645-2.755a.66.66 0 0 0 .17-.625.63.63 0 0 0-.441-.46.6.6 0 0 0-.6.177L.243 3.991A.651.651 0 0 0 0 4.502c0 .2.09.39.244.51l3.642 3.794A.604.604 0 0 0 4.327 9Zm5.38-5.143a.63.63 0 0 0-.615.641.63.63 0 0 0 .616.642.63.63 0 0 0 .616-.642.63.63 0 0 0-.616-.641Zm2.466 0a.63.63 0 0 0-.616.641.63.63 0 0 0 .616.642.63.63 0 0 0 .616-.642.63.63 0 0 0-.616-.641Zm2.465 0a.63.63 0 0 0-.616.641.63.63 0 0 0 .616.642.63.63 0 0 0 .616-.642.63.63 0 0 0-.616-.641Z" fill="#FFF" fill-rule="nonzero"/></symbol><symbol fill="none" viewBox="0 0 14 14" id="times" xmlns="http://www.w3.org/2000/svg"><path d="M8.012 7.01 12.27 2.75a.723.723 0 1 0-1.021-1.021L6.99 5.988 2.733 1.73A.723.723 0 0 0 1.71 2.751L5.97 7.01l-4.258 4.258a.723.723 0 0 0 1.021 1.022L6.992 8.03l4.258 4.258a.723.723 0 0 0 1.021-1.021L8.012 7.008Z" fill="#000"/></symbol><symbol viewBox="0 0 26 24" id="unzoom" xmlns="http://www.w3.org/2000/svg"><g transform="translate(1)" fill="currentColor" fill-rule="nonzero"><path d="M0 0v7.342a.612.612 0 0 0 .313.538c.198.11.44.11.637 0a.612.612 0 0 0 .313-.538V1.224H17V0H0Zm16.421 0-.044 1.224H22.737v6.118c-.005.32.249.59.58.62l.061.002A.624.624 0 0 0 24 7.342V0h-7.579Z"/><path d="M21.562 9.72a.226.226 0 0 0-.116.391l1.662 1.637h-6.886a.23.23 0 0 0-.222.238.231.231 0 0 0 .243.217h6.865l-1.662 1.637a.226.226 0 0 0 .093.4.236.236 0 0 0 .233-.08l2.068-2.02.16-.165-.16-.163-2.068-2.021a.236.236 0 0 0-.188-.072h-.022ZM2.438 9.72a.226.226 0 0 1 .116.391L.892 11.748h6.886a.23.23 0 0 1 .222.238.231.231 0 0 1-.243.217H.892l1.662 1.637a.226.226 0 0 1-.093.4.236.236 0 0 1-.233-.08L.16 12.14 0 11.974l.16-.163L2.228 9.79a.236.236 0 0 1 .188-.072h.022Z" stroke="currentColor" stroke-width=".4"/><path d="M0 23.964V16.62a.612.612 0 0 1 .313-.537c.198-.11.44-.11.637 0a.612.612 0 0 1 .313.537v6.12H17v1.223H0Zm16.421 0-.044-1.224H22.737v-6.119a.623.623 0 0 1 .58-.619l.061-.002a.624.624 0 0 1 .622.621v7.343h-7.579Z"/></g></symbol><symbol viewBox="0 0 12 6" id="up" xmlns="http://www.w3.org/2000/svg"><polygon transform="rotate(-135 -121.587 393.462)" points="66.6568542 753.656854 66.6568542 761.656854 58.6568542 761.656854" fill="currentColor" fill-rule="evenodd"/></symbol><symbol viewBox="0 0 16 16" id="up2" xmlns="http://www.w3.org/2000/svg"><polygon fill="currentColor" fill-rule="nonzero" transform="rotate(180 8 8)" points="1.18327974 3.5 0 4.66292135 7.40836013 11.9438202 8 12.5 8.59163987 11.9438202 16 4.66292135 14.8167203 3.5 8 10.1994382"/></symbol><symbol viewBox="0 0 24 22" id="volume-off" xmlns="http://www.w3.org/2000/svg"><g fill="none" fill-rule="evenodd"><path d="M11.588 0c-.146 0-.29.03-.434.076-.29.093-.567.267-.808.515l-5.63 5.7H1.452C.653 6.291 0 6.953 0 7.761v5.822c0 .81.653 1.47 1.452 1.47h3.264l5.615 5.655c.535.544 1.222.783 1.781.515.564-.269.839-.917.839-1.667V1.606c0-.727-.367-1.331-.929-1.53A1.317 1.317 0 0 0 11.588 0Zm.015.97a.37.37 0 0 1 .12.015c.137.048.27.17.27.622v17.949c0 .517-.169.748-.285.803-.116.055-.35.061-.719-.318l-6.033-6.11a.222.222 0 0 0-.03-.014c.035.032-.12-.275-.12-.455V7.883c0-.18.16-.49.12-.455a.228.228 0 0 0 .03-.03l6.063-6.125c.225-.229.436-.3.584-.303Zm6.753.88a.487.487 0 0 0-.105.925c2.85 1.455 4.79 4.44 4.79 7.897 0 3.459-1.94 6.443-4.79 7.899a.487.487 0 0 0-.094.874.478.478 0 0 0 .513-.01A9.821 9.821 0 0 0 24 10.672a9.821 9.821 0 0 0-5.33-8.762.464.464 0 0 0-.27-.06h-.044Zm-1.707 2.577a.48.48 0 0 0-.414.41.486.486 0 0 0 .279.514 6.049 6.049 0 0 1 3.144 5.321 6.065 6.065 0 0 1-3.129 5.321.487.487 0 0 0-.187.66c.127.235.42.32.651.19a7.03 7.03 0 0 0 3.623-6.17 7.035 7.035 0 0 0-3.638-6.186.48.48 0 0 0-.284-.06h-.045ZM1.452 7.292h2.486c-.062.185-.09.388-.09.591v5.579c0 .203.03.403.09.591H1.452a.465.465 0 0 1-.464-.47V7.762c0-.262.206-.47.464-.47Zm13.19.182a.48.48 0 0 0-.419.458.483.483 0 0 0 .375.497 2.315 2.315 0 0 1 1.706 2.243 2.315 2.315 0 0 1-1.706 2.244.486.486 0 0 0 .24.94 3.293 3.293 0 0 0 2.425-3.184 3.293 3.293 0 0 0-2.426-3.183.483.483 0 0 0-.194-.015Z" fill="currentColor" fill-rule="nonzero"/><path d="M21.102 21.472 2 1" stroke="currentColor"/></g></symbol><symbol viewBox="0 0 24 22" id="volume-on" xmlns="http://www.w3.org/2000/svg"><path d="M11.588 0c-.146 0-.29.03-.434.076-.29.093-.567.267-.808.515l-5.63 5.7H1.452C.653 6.291 0 6.953 0 7.761v5.822c0 .81.653 1.47 1.452 1.47h3.264l5.615 5.655c.535.544 1.222.783 1.781.515.564-.269.839-.917.839-1.667V1.606c0-.727-.367-1.331-.929-1.53A1.317 1.317 0 0 0 11.588 0Zm.015.97a.37.37 0 0 1 .12.015c.137.048.27.17.27.622v17.949c0 .517-.169.748-.285.803-.116.055-.35.061-.719-.318l-6.033-6.11a.222.222 0 0 0-.03-.014c.035.032-.12-.275-.12-.455V7.883c0-.18.16-.49.12-.455a.228.228 0 0 0 .03-.03l6.063-6.125c.225-.229.436-.3.584-.303Zm6.753.88a.487.487 0 0 0-.105.925c2.85 1.455 4.79 4.44 4.79 7.897 0 3.459-1.94 6.443-4.79 7.899a.487.487 0 0 0-.094.874.478.478 0 0 0 .513-.01A9.821 9.821 0 0 0 24 10.672a9.821 9.821 0 0 0-5.33-8.762.464.464 0 0 0-.27-.06h-.044Zm-1.707 2.577a.48.48 0 0 0-.414.41.486.486 0 0 0 .279.514 6.049 6.049 0 0 1 3.144 5.321 6.065 6.065 0 0 1-3.129 5.321.487.487 0 0 0-.187.66c.127.235.42.32.651.19a7.03 7.03 0 0 0 3.623-6.17 7.035 7.035 0 0 0-3.638-6.186.48.48 0 0 0-.284-.06h-.045ZM1.452 7.292h2.486c-.062.185-.09.388-.09.591v5.579c0 .203.03.403.09.591H1.452a.465.465 0 0 1-.464-.47V7.762c0-.262.206-.47.464-.47Zm13.19.182a.48.48 0 0 0-.419.458.483.483 0 0 0 .375.497 2.315 2.315 0 0 1 1.706 2.243 2.315 2.315 0 0 1-1.706 2.244.486.486 0 0 0 .24.94 3.293 3.293 0 0 0 2.425-3.184 3.293 3.293 0 0 0-2.426-3.183.483.483 0 0 0-.194-.015Z" fill="currentColor" fill-rule="nonzero"/></symbol><symbol viewBox="0 0 16 16" id="zoom" xmlns="http://www.w3.org/2000/svg"><g fill="currentColor" fill-rule="nonzero"><path d="M6.34 0C2.841 0 0 2.777 0 6.195s2.842 6.195 6.34 6.195a6.398 6.398 0 0 0 3.705-1.173L14.951 16 16 14.975l-4.848-4.749a6.085 6.085 0 0 0 1.527-4.031C12.679 2.777 9.837 0 6.339 0Zm-.007.667C9.468.667 12 3.05 12 6s-2.532 5.333-5.667 5.333C3.2 11.333.667 8.95.667 6S3.199.667 6.333.667Z"/><polygon points="0.409808206 0.476393832 0.409808206 2.5717675 1.18960913 1.77508897 2.65307113 3.27022539 1.18960913 4.7653618 0.409808206 3.96868327 0.409808206 6.06405694 2.46079145 6.06405694 1.68099053 5.26737841 3.14445254 3.77224199 4.60791454 5.26737841 3.82811362 6.06405694 5.87909687 6.06405694 5.87909687 3.96868327 5.09929595 4.7653618 3.63583394 3.27022539 5.09929595 1.77508897 5.87909687 2.5717675 5.87909687 0.476393832 3.82811362 0.476393832 4.60791454 1.27307236 3.14445254 2.76820878 1.68099053 1.27307236 2.46079145 0.476393832" transform="translate(3.333 2.667)"/></g></symbol></svg>