<svg xmlns="http://www.w3.org/2000/svg" width="120" height="120" viewBox="0 0 120 120">
    <g fill="none" fill-rule="evenodd">
        <path fill="#0086B1" d="M0 120h120V0H0z"/>
        <path fill="#FFF"
              d="M99.853 70.316V51.662c0-2.55-1.615-10.922-13.301-10.922-10.581 0-15.064 6.46-15.064 10.092 0 2.104 1.274 4.526 4.46 4.526 3.188 0 4.017-2.262 4.017-3.792 0-1.53-.988-2.677-.988-2.677-3.697-3.92 4.589-5.26 6.278-5.196 8.606.542 8.16 6.884 8.16 6.884v5.355c-23.712 2.677-23.712 12.494-23.712 14.12 0 4.111 2.581 5.773 2.581 5.773-1.69 0-3.315-.006-4.526-1.217-1.21-1.21-1.147-4.94-1.147-4.94V53.033c0-1.18-.287-11.824-11.22-11.824-9.051 0-12.907 7.585-12.907 7.585v-6.917c0-.318-.51-.508-.51-.508h-10.04l.032 1.592c1.211 0 2.104.541 2.708.988 1.722 1.72 1.58 4.462 1.58 4.462v11.857s-.012 7.77-.017 9.558c.018-1.05.177 3.428-1.083 4.688-1.324 1.323-3.22 1.306-4.4 1.306-1.179 0-2.836.16-4.206-1.21-1.37-1.37-1.18-7.234-1.18-7.234V41.844c0-.286-.446-.476-.446-.476H14.595v1.592c4.719 0 4.367 6.12 4.367 6.12V69.7c0 1.977-.127 6.088-4.367 6.088v1.466h32.16v-1.435c-.51 0-1.69-.015-2.614-.732-1.881-1.53-1.657-5.706-1.657-5.706v-11.76c0-2.805 1.624-12.207 9.944-12.207 8.319 0 7.968 9.944 7.968 9.944v14.948c0 .447-.105 3.355-1.228 4.478-1.123 1.122-3.09 1.035-3.09 1.035v1.53h18.564c.415.032 1.435 1.116 6.342 1.116 8.129 0 12.621-6.321 12.621-6.321 0 .892 1.425 5.163 6.1 5.163h4.44v-1.482c-4.57 0-4.292-4.632-4.292-5.509m-11.687 3.4c-1.019.553-3.314 1.7-5.737 1.7s-5.524-1.955-5.524-6.035c0-4.078 1.742-8.86 16.51-10.867v5.355s.318 6.023-5.249 9.847zm-62-41.178a4.08 4.08 0 1 1-8.16 0 4.08 4.08 0 0 1 8.16 0z"/>
    </g>
</svg>
