<svg width="100%" height="100%" viewBox="0 0 42 42" fill="none" xmlns="http://www.w3.org/2000/svg">
<path d="M21 41C32.0457 41 41 32.0457 41 21C41 9.9543 32.0457 1 21 1C9.9543 1 1 9.9543 1 21C1 32.0457 9.9543 41 21 41Z" stroke="black" stroke-width="1.5"/>
<path d="M27.6663 14.3323C27.6663 18.0136 24.6821 21 20.9986 21C17.3173 21 14.333 18.0136 14.333 14.3323C14.333 10.6509 17.3173 7.66666 20.9986 7.66666C24.6821 7.66666 27.6663 10.6509 27.6663 14.3323Z" stroke="black" stroke-width="1.5"/>
<path d="M34.4496 35.6667C34.4496 32.7681 30.7433 25 21.0583 25C11.3733 25 7.66699 32.7681 7.66699 35.6667" stroke="black" stroke-width="1.5"/>
</svg>
