<?xml version="1.0" encoding="utf-8"?>
<svg version="1.1" id="notification" xmlns="http://www.w3.org/2000/svg" xmlns:xlink="http://www.w3.org/1999/xlink" x="0px"
	 y="0px" viewBox="0 0 40 40" style="enable-background:new 0 0 40 40;" xml:space="preserve">
<style type="text/css">
	.st0{fill:#221F20;}
</style>
<path class="st0" d="M32.9,34.3H7.1c-0.3,0-1.3,0-1.5-0.7c-0.3-0.8,0.7-1.7,1.1-2.1l1.7-1.4c0-0.1,0-0.1,0-0.2V11.3
	c0-4.2,3.7-7.7,8.7-8.3c0,0,0,0,0-0.1c0-1.5,1.3-2.7,2.9-2.7s2.9,1.2,2.9,2.7c0,0,0,0.1,0,0.1c4.9,0.7,8.6,4.2,8.6,8.3v18.8l1.8,1.5
	c0.4,0.4,1.4,1.3,1.1,2.1C34.1,34.3,33.2,34.3,32.9,34.3z M6.6,33.3c0.1,0,0.2,0,0.5,0h25.7c0.5,0,0.6-0.1,0.6-0.1
	c0-0.1-0.4-0.6-0.8-0.9l-2.1-1.8V11.3c0-3.8-3.5-6.9-8.2-7.4l-0.6-0.1l0.2-0.6c0-0.1,0.1-0.3,0.1-0.4c0-0.9-0.9-1.7-1.9-1.7
	c-1.1,0-1.9,0.8-1.9,1.7c0,0.1,0,0.2,0.1,0.4l0.1,0.6l-0.6,0.1C13,4.3,9.4,7.5,9.4,11.3V30c0,0.1,0,0.1,0,0.2l0.1,0.4l-2.1,1.8
	C7,32.7,6.6,33.1,6.6,33.3C6.6,33.3,6.6,33.3,6.6,33.3z"/>
<path class="st0" d="M20,39.7c-2.2,0-3.9-1.8-3.9-3.9v-0.5h7.8v0.5C23.9,38,22.2,39.7,20,39.7z M17.1,36.3c0.2,1.4,1.4,2.4,2.9,2.4
	s2.6-1,2.9-2.4H17.1z"/>
</svg>
