<svg width="14" height="14" viewBox="0 0 14 14" fill="none" xmlns="http://www.w3.org/2000/svg">
<g clip-path="url(#clip0_18018_103993)">
<path d="M6.53623 2.18801C6.95827 2.19082 7.37619 2.27716 7.76475 2.44192C8.15322 2.60668 8.50551 2.84759 8.80088 3.14895C9.42002 3.80194 9.75501 4.67417 9.73252 5.57375C9.70992 6.47336 9.33189 7.32758 8.68076 7.94875L7.67197 8.95657C7.61712 9.01538 7.5511 9.06248 7.47764 9.09524C7.40411 9.128 7.32472 9.14554 7.24424 9.147C7.16375 9.14842 7.08354 9.13415 7.00889 9.10403C6.93418 9.07385 6.86567 9.02917 6.80869 8.97219C6.75174 8.91522 6.70703 8.84669 6.67686 8.772C6.64677 8.69737 6.63247 8.61709 6.63389 8.53664C6.63535 8.45619 6.6529 8.37674 6.68565 8.30325C6.7184 8.22981 6.76551 8.16375 6.82432 8.10891L7.80088 7.06887C8.22059 6.67493 8.46741 6.13044 8.48838 5.5552C8.50925 4.98004 8.30209 4.41998 7.91221 3.9966C7.4859 3.62488 6.93344 3.43035 6.36826 3.45266C5.80316 3.47504 5.26779 3.71257 4.87217 4.11672L1.88877 7.14016C1.4769 7.53314 1.23347 8.07133 1.21104 8.64016C1.18864 9.20903 1.38892 9.76481 1.76865 10.189C1.97728 10.3951 2.22864 10.5528 2.50498 10.6509C2.78148 10.7491 3.07624 10.7849 3.36826 10.7564C3.44607 10.7487 3.52492 10.757 3.59971 10.7798C3.67425 10.8026 3.74371 10.8395 3.80381 10.8892C3.86403 10.939 3.91386 11.0007 3.95029 11.0698C3.98672 11.139 4.00968 11.2147 4.0167 11.2925C4.03234 11.4504 3.98422 11.6081 3.88389 11.731C3.78347 11.8539 3.63845 11.9325 3.48057 11.9488L3.18467 11.9888C2.33689 11.9916 1.52196 11.658 0.920021 11.0611C0.308921 10.4118 -0.0213944 9.5471 0.00107574 8.65578C0.0235765 7.76451 0.397129 6.9179 1.04014 6.30032L4.04795 3.26809C4.70175 2.59319 5.59673 2.20477 6.53623 2.18801ZM10.5206 2.02883C10.9863 1.98058 11.4572 2.03459 11.8995 2.18801C12.3417 2.34143 12.7445 2.59039 13.0802 2.91653C13.6912 3.56567 14.0215 4.42964 13.9991 5.32082C13.9767 6.21214 13.6031 7.05868 12.9601 7.67629L9.95225 10.7085C9.29841 11.3834 8.4035 11.7719 7.46397 11.7886C7.04207 11.7857 6.62486 11.6994 6.23643 11.5347C5.8479 11.3699 5.4957 11.13 5.20029 10.8286C4.5809 10.1756 4.24617 9.3036 4.26865 8.40383C4.29115 7.50409 4.6692 6.65009 5.32041 6.02883L6.32822 5.02004C6.38312 4.96118 6.45001 4.91413 6.52354 4.88137C6.59703 4.84868 6.67651 4.83103 6.75694 4.82961C6.83744 4.82821 6.91763 4.8434 6.99229 4.87356C7.06687 4.90373 7.13461 4.9485 7.19151 5.00539C7.2484 5.06229 7.29317 5.13003 7.32334 5.20461C7.3535 5.27927 7.36868 5.35946 7.36729 5.43996C7.36587 5.52039 7.34821 5.59987 7.31553 5.67336C7.28277 5.74689 7.23572 5.81378 7.17686 5.86867L6.20029 6.90871C5.78063 7.30262 5.5338 7.84623 5.51279 8.42141C5.49182 8.9967 5.69802 9.55751 6.08799 9.98098C6.51423 10.3527 7.06684 10.5472 7.63194 10.5249C8.19699 10.5026 8.73237 10.2649 9.12803 9.86086L12.1446 6.83645C12.5519 6.43925 12.7893 5.89926 12.8058 5.33059C12.8222 4.76181 12.6163 4.2087 12.2325 3.7886C12.024 3.58248 11.7725 3.42486 11.4962 3.32668C11.2198 3.22857 10.9248 3.19184 10.6329 3.22024C10.5552 3.22794 10.4762 3.22055 10.4015 3.19778C10.3267 3.17496 10.2566 3.13726 10.1964 3.08742C10.1363 3.03768 10.0863 2.97672 10.0499 2.90774C10.0135 2.83856 9.99149 2.76198 9.98447 2.6841C9.96894 2.52621 10.0169 2.3685 10.1173 2.24563C10.2177 2.12281 10.3627 2.04498 10.5206 2.02883Z" fill="#003A4C"/>
</g>
<defs>
<clipPath id="clip0_18018_103993">
<rect width="14" height="14" fill="white"/>
</clipPath>
</defs>
</svg>
