<svg width="100%" height="100%" viewBox="0 0 42 42" fill="none" xmlns="http://www.w3.org/2000/svg">
<path fill-rule="evenodd" clip-rule="evenodd" d="M21 26.5114C17.9563 26.5114 15.4886 24.0437 15.4886 21C15.4886 17.9564 17.9563 15.4886 21 15.4886C24.0437 15.4886 26.5114 17.9564 26.5114 21C26.5114 24.0437 24.0437 26.5114 21 26.5114ZM37.5341 21C37.5341 19.246 38.6309 17.7607 40.1741 17.1655C40.7845 16.9299 41.1262 16.2519 40.9567 15.6195C40.4937 13.9027 39.8158 12.2755 38.9533 10.7668C38.5923 10.1343 37.8372 9.92216 37.1621 10.1991C35.6727 10.8095 33.9035 10.5201 32.691 9.309C31.4799 8.0965 31.1905 6.32735 31.8009 4.8379C32.0778 4.16276 31.8657 3.4077 31.2332 3.0467C29.7245 2.18417 28.0973 1.50627 26.3805 1.04332C25.7481 0.87384 25.0701 1.21555 24.8345 1.82594C24.2393 3.36912 22.754 4.46589 21 4.46589C19.246 4.46589 17.7607 3.36912 17.1655 1.82594C16.9299 1.21555 16.252 0.87384 15.6195 1.04332C13.9041 1.50627 12.2755 2.18417 10.7668 3.0467C10.1343 3.4077 9.92213 4.16276 10.1991 4.8379C10.8095 6.32735 10.5201 8.0965 9.30899 9.309C8.09786 10.5201 6.32871 10.8095 4.83789 10.1991C4.16412 9.92216 3.40908 10.1343 3.0467 10.7668C2.18417 12.2755 1.50627 13.9027 1.04332 15.6195C0.873841 16.2519 1.21554 16.9299 1.82592 17.1655C3.36911 17.7607 4.46588 19.246 4.46588 21C4.46588 22.754 3.36911 24.2393 1.82592 24.8345C1.21554 25.0702 0.873841 25.7481 1.04332 26.3805C1.50627 28.0959 2.18417 29.7245 3.0467 31.2333C3.40908 31.8657 4.16412 32.0779 4.83789 31.8009C6.32871 31.1905 8.09786 31.4799 9.30899 32.691C10.5201 33.9021 10.8095 35.6713 10.1991 37.1621C9.92213 37.8359 10.1343 38.5909 10.7668 38.9533C12.2755 39.8158 13.9041 40.4938 15.6195 40.9567C16.252 41.1262 16.9299 40.7845 17.1655 40.1741C17.7607 38.6309 19.246 37.5341 21 37.5341C22.754 37.5341 24.2393 38.6309 24.8345 40.1741C25.0701 40.7845 25.7481 41.1262 26.3805 40.9567C28.0973 40.4938 29.7245 39.8158 31.2332 38.9533C31.8657 38.5909 32.0778 37.8359 31.8009 37.1621C31.1905 35.6713 31.4799 33.9021 32.691 32.691C33.9035 31.4799 35.6727 31.1905 37.1621 31.8009C37.8372 32.0779 38.5923 31.8657 38.9533 31.2333C39.8158 29.7245 40.4937 28.0959 40.9567 26.3805C41.1262 25.7481 40.7845 25.0702 40.1741 24.8345C38.6309 24.2393 37.5341 22.754 37.5341 21Z" stroke="black" stroke-width="1.5"/>
</svg>
