<svg width="26" height="26" viewBox="0 0 26 26" fill="none" xmlns="http://www.w3.org/2000/svg">
<path fill-rule="evenodd" clip-rule="evenodd" d="M12.75 16.0568C10.9238 16.0568 9.44315 14.5762 9.44315 12.75C9.44315 10.9238 10.9238 9.44315 12.75 9.44315C14.5762 9.44315 16.0568 10.9238 16.0568 12.75C16.0568 14.5762 14.5762 16.0568 12.75 16.0568ZM22.6704 12.75C22.6704 11.6976 23.3285 10.8064 24.2544 10.4493C24.6207 10.3079 24.8257 9.90113 24.724 9.52169C24.4462 8.49161 24.0395 7.51529 23.522 6.61008C23.3054 6.23058 22.8523 6.10329 22.4472 6.26946C21.5536 6.6357 20.4921 6.46206 19.7646 5.7354C19.0379 5.0079 18.8643 3.94641 19.2305 3.05274C19.3967 2.64765 19.2694 2.19462 18.8899 1.97802C17.9847 1.4605 17.0084 1.05376 15.9783 0.775991C15.5988 0.674303 15.192 0.879329 15.0507 1.24556C14.6936 2.17147 13.8024 2.82953 12.75 2.82953C11.6976 2.82953 10.8064 2.17147 10.4493 1.24556C10.3079 0.879329 9.90119 0.674303 9.52169 0.775991C8.49245 1.05376 7.51529 1.4605 6.61008 1.97802C6.23058 2.19462 6.10327 2.64765 6.26946 3.05274C6.63569 3.94641 6.46205 5.0079 5.73539 5.7354C5.00871 6.46206 3.94722 6.6357 3.05273 6.26946C2.64847 6.10329 2.19545 6.23058 1.97802 6.61008C1.4605 7.51529 1.05376 8.49161 0.775991 9.52169C0.674303 9.90113 0.879323 10.3079 1.24555 10.4493C2.17146 10.8064 2.82953 11.6976 2.82953 12.75C2.82953 13.8024 2.17146 14.6936 1.24555 15.0507C0.879323 15.1921 0.674303 15.5989 0.775991 15.9783C1.05376 17.0075 1.4605 17.9847 1.97802 18.89C2.19545 19.2694 2.64847 19.3967 3.05273 19.2305C3.94722 18.8643 5.00871 19.0379 5.73539 19.7646C6.46205 20.4912 6.63569 21.5528 6.26946 22.4472C6.10327 22.8515 6.23058 23.3045 6.61008 23.522C7.51529 24.0395 8.49245 24.4463 9.52169 24.724C9.90119 24.8257 10.3079 24.6207 10.4493 24.2544C10.8064 23.3285 11.6976 22.6704 12.75 22.6704C13.8024 22.6704 14.6936 23.3285 15.0507 24.2544C15.192 24.6207 15.5988 24.8257 15.9783 24.724C17.0084 24.4463 17.9847 24.0395 18.8899 23.522C19.2694 23.3045 19.3967 22.8515 19.2305 22.4472C18.8643 21.5528 19.0379 20.4912 19.7646 19.7646C20.4921 19.0379 21.5536 18.8643 22.4472 19.2305C22.8523 19.3967 23.3054 19.2694 23.522 18.89C24.0395 17.9847 24.4462 17.0075 24.724 15.9783C24.8257 15.5989 24.6207 15.1921 24.2544 15.0507C23.3285 14.6936 22.6704 13.8024 22.6704 12.75Z" stroke="#212529" stroke-width="1.5"/>
</svg>
