<svg width="100%" height="100%" viewBox="0 0 46 43" fill="none" xmlns="http://www.w3.org/2000/svg">
<path fill-rule="evenodd" clip-rule="evenodd" d="M45 28.28C38.2121 37.08 30.8788 41.48 23 41.48C15.1212 41.48 7.78787 37.08 1 28.28C7.95309 19.48 15.2864 15.08 23 15.08C30.7136 15.08 38.0469 19.48 45 28.28Z" stroke="black" stroke-width="1.5" stroke-linecap="square" stroke-linejoin="round"/>
<path d="M23.0003 37.9599C28.3464 37.9599 32.6803 33.6261 32.6803 28.2799C32.6803 22.9338 28.3464 18.5999 23.0003 18.5999C17.6542 18.5999 13.3203 22.9338 13.3203 28.2799C13.3203 33.6261 17.6542 37.9599 23.0003 37.9599Z" stroke="black" stroke-width="1.5" stroke-linecap="square" stroke-linejoin="round"/>
<path d="M29.1606 29.16C31.1047 29.16 32.6806 27.584 32.6806 25.64C32.6806 23.6959 31.1047 22.12 29.1606 22.12C27.2166 22.12 25.6406 23.6959 25.6406 25.64C25.6406 27.584 27.2166 29.16 29.1606 29.16Z" fill="black"/>
<path d="M23 6.28V1" stroke="black" stroke-width="1.5" stroke-linecap="square" stroke-linejoin="round"/>
<path d="M6.47922 9.99887L3.08594 5.95439" stroke="black" stroke-width="1.5" stroke-linecap="square" stroke-linejoin="round"/>
<path d="M38.2852 9.99973L41.6802 5.95525" stroke="black" stroke-width="1.5" stroke-linecap="square" stroke-linejoin="round"/>
</svg>
