<svg width="26" height="25" viewBox="0 0 26 25" fill="none" xmlns="http://www.w3.org/2000/svg">
<path d="M11.0206 6.73894H3.7077C2.03821 6.73894 0.684814 8.09233 0.684814 9.76182V23.3648L4.20061 19.4402C4.77403 18.8001 5.59119 18.4343 6.45056 18.4343C9.44538 18.4343 13.2133 18.4343 15.7993 18.4343C17.4688 18.4343 18.8221 17.0809 18.8221 15.4114V14.3423" stroke="#252525" stroke-width="1.36974" stroke-linejoin="round"/>
<circle cx="5.82702" cy="12.785" r="1.16494" transform="rotate(18.8549 5.82702 12.785)" fill="#252525"/>
<circle cx="9.5404" cy="12.785" r="1.16494" transform="rotate(18.8549 9.5404 12.785)" fill="#252525"/>
<circle cx="13.254" cy="12.785" r="1.16494" transform="rotate(18.8549 13.254 12.785)" fill="#252525"/>
<rect x="12.8311" y="0.75" width="11.5099" height="11.5099" rx="5.75496" stroke="#252525" stroke-width="1.5"/>
<path d="M18.5859 4.29787V8.71201" stroke="#252525" stroke-width="1.5" stroke-linecap="round"/>
<path d="M20.793 6.50493L16.3789 6.50493" stroke="#252525" stroke-width="1.5" stroke-linecap="round"/>
</svg>
