<svg width="24" height="17" viewBox="0 0 24 17" fill="none" xmlns="http://www.w3.org/2000/svg">
<g style="mix-blend-mode:luminosity">
<path d="M2.72266 12.3826H3.38774V0.980469H2.72266V12.3826ZM4.09723 12.3826H6.13674V0.980469H4.09723V12.3826ZM6.80196 0.980469V12.3822H8.84147V0.980469H6.80196Z" fill="#990000"/>
<path d="M19.1334 12.3834H19.7987V0.980469H19.1334V12.3834ZM20.5081 0.980469V12.3834H21.1732V0.980469H20.5081ZM9.5293 12.3834H10.1944V0.98047H9.5293V12.3834ZM10.904 0.98047V12.383H11.5692V0.98047H10.904Z" fill="#339966"/>
<path d="M12.2559 12.3834H14.2956V0.980469H12.2559V12.3834ZM14.9606 12.3834H15.6699V0.980469H14.9606V12.3834ZM16.3352 0.980469V12.383H18.3747V0.980469H16.3352Z" fill="#006699"/>
<path d="M20.1605 13.6406L21.2099 16.0052H20.5768L20.3822 15.5381H19.3243L19.1483 16.0052H18.5237L19.4766 13.6406H20.1605ZM20.2079 15.1251L19.827 14.206L19.48 15.1251H20.2079ZM18.8334 13.6406V14.0739H17.977V16.0052H17.3879V14.0739H16.5315V13.6406H18.8334ZM15.7867 13.6406L16.8361 16.0052H16.2031L16.0085 15.5381H14.9506L14.7745 16.0052H14.15L15.1029 13.6406H15.7867ZM15.8341 15.1251L15.4533 14.206L15.1063 15.1251H15.8341ZM11.8074 13.6406H12.85C13.2529 13.6406 13.5711 13.7512 13.8047 13.9724C14.0394 14.1924 14.1567 14.4773 14.1567 14.8272C14.1567 15.1939 14.0377 15.4822 13.7996 15.6921C13.5626 15.9008 13.2241 16.0052 12.784 16.0052H11.8074V13.6406ZM12.3964 14.0739V15.5719H12.7806C13.03 15.5719 13.2207 15.5036 13.3527 15.3671C13.4847 15.2294 13.5508 15.0483 13.5508 14.8238C13.5508 14.5913 13.4836 14.4085 13.3493 14.2754C13.2162 14.1411 13.0244 14.0739 12.7738 14.0739H12.3964ZM11.2623 13.6406V16.0052H10.6733V13.6406H11.2623ZM10.1469 13.6406L9.37675 14.751L10.4211 16.0052H9.68312L8.74709 14.8966V16.0052H8.15806V13.6406H8.74709V14.7053L9.49862 13.6406H10.1469ZM7.61304 13.6406V16.0052H7.024V13.6406H7.61304ZM4.71188 14.4937L3.98066 16.0357H3.72677L2.6875 13.6406H3.31208L3.86895 14.9473L4.4766 13.6406H4.95054L5.55819 14.9473L6.11168 13.6406H6.73626L5.70037 16.0357H5.44648L4.71188 14.4937Z" fill="#484848"/>
</g>
</svg>
